<svg width="21" height="21" viewBox="0 0 21 21" fill="none" xmlns="http://www.w3.org/2000/svg">
<path d="M3.28741 0H9.86224C10.7341 0 11.5703 0.349341 12.1868 0.971172C12.8033 1.593 13.1497 2.43639 13.1497 3.31579V7.73684H12.0539V3.31579C12.0539 2.72952 11.823 2.16727 11.4119 1.75271C11.0009 1.33816 10.4435 1.10526 9.86224 1.10526H3.28741C2.70616 1.10526 2.14872 1.33816 1.73771 1.75271C1.32671 2.16727 1.0958 2.72952 1.0958 3.31579V17.6842C1.0958 18.2705 1.32671 18.8327 1.73771 19.2473C2.14872 19.6618 2.70616 19.8947 3.28741 19.8947H9.86224C10.4435 19.8947 11.0009 19.6618 11.4119 19.2473C11.823 18.8327 12.0539 18.2705 12.0539 17.6842V13.2632H13.1497V17.6842C13.1497 18.5636 12.8033 19.407 12.1868 20.0288C11.5703 20.6507 10.7341 21 9.86224 21H3.28741C2.41554 21 1.57937 20.6507 0.962861 20.0288C0.346352 19.407 0 18.5636 0 17.6842V3.31579C0 2.43639 0.346352 1.593 0.962861 0.971172C1.57937 0.349341 2.41554 0 3.28741 0ZM6.57483 9.94737H18.9026L15.3413 6.35526L16.0689 5.52632L21 10.5L16.0689 15.4737L15.3413 14.6447L18.9026 11.0526H6.57483V9.94737Z" fill="#472FC8"/>
</svg>
