<svg width="26" height="20" viewBox="0 0 26 20" fill="none" xmlns="http://www.w3.org/2000/svg">
<path d="M4.45833 0.458374H9.62499L13.5 4.33337H21.25C22.2777 4.33337 23.2633 4.74163 23.99 5.46833C24.7167 6.19504 25.125 7.18066 25.125 8.20837V15.9584C25.125 16.9861 24.7167 17.9717 23.99 18.6984C23.2633 19.4251 22.2777 19.8334 21.25 19.8334H4.45833C3.43061 19.8334 2.44499 19.4251 1.71829 18.6984C0.991586 17.9717 0.583328 16.9861 0.583328 15.9584V4.33337C0.583328 3.30566 0.991586 2.32004 1.71829 1.59334C2.44499 0.866632 3.43061 0.458374 4.45833 0.458374ZM4.45833 1.75004C3.77319 1.75004 3.1161 2.02221 2.63164 2.50668C2.14717 2.99115 1.87499 3.64823 1.87499 4.33337V15.9584C1.87499 16.6435 2.14717 17.3006 2.63164 17.7851C3.1161 18.2695 3.77319 18.5417 4.45833 18.5417H21.25C21.9351 18.5417 22.5922 18.2695 23.0767 17.7851C23.5612 17.3006 23.8333 16.6435 23.8333 15.9584V8.20837C23.8333 7.52323 23.5612 6.86615 23.0767 6.38168C22.5922 5.89721 21.9351 5.62504 21.25 5.62504H12.9652L9.09025 1.75004H4.45833ZM7.04166 15.9584V13.375H4.45833V12.0834H7.04166V9.50004H8.33333V12.0834H10.9167V13.375H8.33333V15.9584H7.04166Z" fill="black" fill-opacity="0.824"/>
</svg>
