<svg width="35" height="29" viewBox="0 0 35 29" fill="none" xmlns="http://www.w3.org/2000/svg">
<path d="M17.2025 1.855V1.38423C17.2025 0.619863 16.5826 0 15.8182 0H1.38423C0.619863 0 0 0.619863 0 1.38423V26.3456H34.4049V3.23923C34.4049 2.47486 33.7851 1.855 33.0207 1.855H17.2025Z" fill="#F9DF5C"/>
<path d="M33.1997 3.84998H1.52765V26.5991H33.1997V3.84998Z" fill="white"/>
<path d="M16.7118 6.69405L16.2009 8.10982H1.38441C0.620046 8.10982 0.000183105 8.72968 0.000183105 9.49404V27.1191C0.000183105 27.8835 0.620046 28.5033 1.38441 28.5033H33.0209C33.7853 28.5033 34.4051 27.8835 34.4051 27.1191V7.16425C34.4051 6.39989 33.7853 5.78003 33.0209 5.78003H18.014C17.4309 5.77946 16.9102 6.1453 16.7118 6.69405Z" fill="#F3CC30"/>
<path d="M34.4051 27.1191V15.6284C24.8486 24.9235 8.27285 27.411 0.384949 28.075C0.636678 28.3382 0.99105 28.5033 1.38441 28.5033H33.0209C33.7853 28.5033 34.4051 27.8835 34.4051 27.1191Z" fill="#EDBD31"/>
<path d="M13.9715 9.22461H2.27268C1.65511 9.22461 1.15509 9.7252 1.15509 10.3422V12.8182C3.12305 11.4701 7.56358 9.77165 13.9715 9.22461Z" fill="#F6D738"/>
</svg>
